<svg width="536" height="78" viewBox="0 0 536 78" fill="none" xmlns="http://www.w3.org/2000/svg">
<path d="M76 23.4968C17.5 23.4968 3.5 9.10238 0 0.317525V78H270.5H536V0C536 0 531.601 9.33006 525.5 13.9711C512.242 24.0565 487.167 24.3436 475 24.1319C475 24.1319 431.716 24.6272 404 24.1319C393.843 23.9504 353 24.1319 353 24.1319C318.5 24.1319 292.819 33.3663 285.024 47.3112C275.446 64.4466 263 62.4706 260 62.4706C257 62.4706 245 61.2203 238.5 47.3112C229.129 27.2592 199.5 23.4968 171 23.4968H76Z" fill="#00A0E9" fill-opacity="0.1"/>
</svg>
